<svg width="80" height="80" viewBox="0 0 512 512" xmlns="http://www.w3.org/2000/svg">
<path d="M437.019,74.982C388.667,26.63,324.38,0.001,256,0.001S123.333,26.63,74.98,74.982C26.628,123.334,0,187.62,0,256
c0,68.381,26.628,132.668,74.98,181.019c48.352,48.351,112.639,74.98,181.02,74.98c68.381,0,132.668-26.629,181.02-74.98
C485.372,388.668,512,324.38,512,256S485.371,123.333,437.019,74.982z M96.489,415.512C53.882,372.905,30.417,316.255,30.417,256
c0-60.255,23.465-116.904,66.072-159.511C139.097,53.883,195.745,30.418,256,30.418S372.904,53.883,415.511,96.49
c24.55,24.55,42.729,53.767,53.742,85.646c-11.015-1.432-22.145-2.178-33.296-2.178c-68.38,0-132.668,26.629-181.02,74.98
s-74.98,112.639-74.98,181.019c0,11.152,0.747,22.283,2.179,33.298C150.258,458.242,121.04,440.063,96.489,415.512z
 M210.374,435.956c0-60.255,23.465-116.904,66.072-159.511c42.607-42.606,99.255-66.071,159.511-66.071
c7.673,0,15.331,0.409,22.94,1.178L211.552,458.895C210.784,451.287,210.374,443.629,210.374,435.956z M415.511,415.511
c-42.606,42.606-99.255,66.071-159.511,66.071c-7.722,0-15.384-0.391-22.965-1.154l247.394-247.395
c0.761,7.583,1.153,15.244,1.153,22.966C481.583,316.255,458.117,372.905,415.511,415.511z"/>
</svg>
